# xmcd
#
# Track frame offsets: 
#        150
#        16705
#        27257
#        37695
#        47177
#        58432
#        67665
#        80790
#        90722
#        101165
#        115917
#        124807
#
# Disc length: 1779 seconds
#
# Revision: 0
# Processed by: cddbd v1.5.2PL0 Copyright (c) Steve Scherf et al.
# Submitted via: ExactAudioCopy v0.95b3
#
DISCID=9906f10c
DTITLE=Jack London and The Sparrows - Jack London and The Sparrows (Pre-St
DTITLE=eppenwolf)  FLAC
DYEAR=1900
DGENRE=
TTITLE0=Our Love Has Passed
TTITLE1=Sparrows and Daisies
TTITLE2=Take It Slow
TTITLE3=You Don't Want Me Now
TTITLE4=It's Been One Of Those Days
TTITLE5=If You Don't Want My Love
TTITLE6=Give My Love To Sally
TTITLE7=Glad To Be With You
TTITLE8=Give My Love To You
TTITLE9=Leavin' Blues
TTITLE10=Dream On Dreamer
TTITLE11=I'll Be The Boy
EXTD=
EXTT0=
EXTT1=
EXTT2=
EXTT3=
EXTT4=
EXTT5=
EXTT6=
EXTT7=
EXTT8=
EXTT9=
EXTT10=
EXTT11=
PLAYORDER=
